<?xml version="1.0" encoding="utf-8"?>
<?xml-stylesheet type="text/xsl" href="rss1.xsl"?>
<rss version="2.0" xmlns:atom="http://www.w3.org/2005/Atom" xmlns:content="http://purl.org/rss/1.0/modules/content/" xmlns:dc="http://purl.org/dc/elements/1.1/" xmlns:media="http://search.yahoo.com/mrss/">
<channel>
 <title>Getty</title>
 <link>http://www.gettyimg.com/</link>
 <atom:link href="http://www.gettyimg.com/" rel="self" type="application/rss+xml" />

 
                <item>
                <title><![CDATA[【Albums (lossless)】ALAC - Iggy Azalea - The New Classic (Deluxe Version) | Apple Music | Apple LAC | .M4A 16bits ／ 44.1kHz]]></title>
                <link><![CDATA[https://sharemania.us/threads/iggy-azalea-the-new-classic-deluxe-version-apple-music-apple-lac-m4a-16bits-%EF%BC%8F-44-1khz.244201/]]></link>
                <description><![CDATA[<article>
<blockquote class="messageText SelectQuoteContainer ugc baseHtml">
<div style="text-align: center"><img src="https://i.imgur.com/8wA6tmU.png" class="bbCodeImage LbImage" alt="[​IMG]" data-url="https://i.imgur.com/8wA6tmU.png" style=""> <br>
<br>
<span style="font-family: 'Book Antiqua'"><span style="font-size: 12px"><span style="color: #ff99ff">
<div class="bbCodeBlock bbCodeVfcHH HiddenContent">
<div class="attribution type">Hidden Content:</div>
<blockquote>You must reply before you can see the hidden data contained here.</blockquote>
</div></span></span></span>​</div>
<div class="messageTextEndMarker">&nbsp;</div>
</blockquote>
</article>]]></description>
                <author><![CDATA[Nuric]]></author>
                </item>

                
                <item>
                <title><![CDATA[【SD Live Performances】PACK - Alanis Morissette - MTV Unplugged (1999) + VH1 Storytellers (2005) from Paramount+]]></title>
                <link><![CDATA[https://sharemania.us/threads/alanis-morissette-mtv-unplugged-1999-vh1-storytellers-2005-from-paramount.244204/]]></link>
                <description><![CDATA[<article>
<blockquote class="messageText SelectQuoteContainer ugc baseHtml">
<img src="https://i.imgur.com/9kMB2bC.jpeg" class="bbCodeImage LbImage" alt="[​IMG]" data-url="https://i.imgur.com/9kMB2bC.jpeg" style=""> <img src="https://i.imgur.com/WlCI2Hr.jpeg" class="bbCodeImage LbImage" alt="[​IMG]" data-url="https://i.imgur.com/WlCI2Hr.jpeg" style=""> <br>
<div class="ToggleTriggerAnchor bbCodeSpoilerContainer">
<button type="button" class="button bbCodeSpoilerButton ToggleTrigger Tooltip JsOnly" data-target="> .SpoilerTarget"><span>Spoiler: <span class="SpoilerTitle">MediaInfo</span></span></button>
<div class="SpoilerTarget bbCodeSpoilerText">Movie name : MTV Unplugged: Alanis Morissette<br>
Format : MPEG-4<br>
Format profile : Base Media / Version 2<br>
Codec ID : mp42 (mp42/iso6)<br>
File size : 280 MiB<br>
Duration : 44 min 34 s<br>
Overall bit rate mode : Variable<br>
Overall bit rate : 877 kb/s<br>
Frame rate : 29.970 FPS<br>
Encoded date : 2024-05-11 00:42:35 UTC<br>
Tagged date : 2024-05-11 00:42:35 UTC<br>
<br>
Video<br>
ID : 1<br>
Format : AVC<br>
Format/Info : Advanced Video Codec<br>
Format profile : High@L4<br>
Format settings : CABAC / 5 Ref Frames<br>
Format settings, CABAC : Yes<br>
Format settings, Reference fra : 5 frames<br>
Codec ID : avc1<br>
Codec ID/Info : Advanced Video Coding<br>
Duration : 44 min 34 s<br>
Bit rate : 750 kb/s<br>
Width : 768 pixels<br>
Height : 576 pixels<br>
Display aspect ratio : 4:3<br>
Frame rate mode : Constant<br>
Frame rate : 29.970 (30000/1001) FPS<br>
Color space : YUV<br>
Chroma subsampling : 4:2:0<br>
Bit depth : 8 bits<br>
Scan type : Progressive<br>
Bits/(Pixel*Frame) : 0.057<br>
Stream size : 238 MiB (85%)<br>
Writing library : x264 core 164 r3085 0bb85e8<br>
Encoding settings : cabac=1 / ref=5 / deblock=1:0:0 / analyse=0x3:0x113 / me=hex / subme=8 / psy=1 / psy_rd=1.00:0.00 / mixed_ref=1 / me_range=16 / chroma_me=1 / trellis=2 / 8x8dct=1 / cqm=0 / deadzone=21,11 / fast_pskip=1 / chroma_qp_offset=-2 / threads=12 / lookahead_threads=2 / sliced_threads=0 / nr=0 / decimate=1 / interlaced=0 / bluray_compat=0 / stitchable=1 / constrained_intra=0 / bframes=3 / b_pyramid=2 / b_adapt=1 / b_bias=0 / direct=3 / weightb=1 / open_gop=0 / weightp=2 / keyint=60 / keyint_min=6 / scenecut=0 / intra_refresh=0 / rc_lookahead=50 / rc=2pass / mbtree=1 / bitrate=750 / ratetol=1.0 / qcomp=0.60 / qpmin=0 / qpmax=69 / qpstep=4 / cplxblur=20.0 / qblur=0.5 / vbv_maxrate=900 / vbv_bufsize=750 / nal_hrd=none / filler=0 / ip_ratio=1.40 / aq=1:1.00<br>
Encoded date : 2024-05-11 00:42:35 UTC<br>
Tagged date : 2024-05-11 00:42:35 UTC<br>
Color range : Limited<br>
Matrix coefficients : BT.601<br>
Codec configuration box : avcC<br>
<br>
Audio<br>
ID : 2<br>
Format : AAC LC<br>
Format/Info : Advanced Audio Codec Low Complexity<br>
Codec ID : mp4a-40-2<br>
Duration : 44 min 34 s<br>
Bit rate mode : Constant<br>
Bit rate : 125 kb/s<br>
Channel(s) : 2 channels<br>
Channel layout : L R<br>
Sampling rate : 48.0 kHz<br>
Frame rate : 46.875 FPS (1024 SPF)<br>
Compression mode : Lossy<br>
Stream size : 40.0 MiB (14%)<br>
Language : English<br>
Default : Yes<br>
Alternate group : 1<br>
Encoded date : 2024-05-11 00:42:35 UTC<br>
Tagged date : 2024-05-11 00:42:35 UTC<br>
<br>
Text #1<br>
ID : 3<br>
Format : Timed Text<br>
Muxing mode : sbtl<br>
Codec ID : tx3g<br>
Duration : 44 min 0 s<br>
Bit rate mode : Variable<br>
Bit rate : 5 b/s<br>
Frame rate : 0.108 FPS<br>
Stream size : 1.73 KiB (0%)<br>
Title : Spanish (Mexico) / Spanish (Mexico)<br>
Language : Spanish<br>
Default : Yes<br>
Forced : No<br>
Alternate group : 2<br>
Encoded date : 2024-05-11 00:42:35 UTC<br>
Tagged date : 2024-05-11 00:42:35 UTC<br>
Count of events : 40<br>
<br>
Text #2<br>
ID : 4<br>
Format : Timed Text<br>
Muxing mode : sbtl<br>
Codec ID : tx3g<br>
Duration : 43 min 54 s<br>
Bit rate mode : Variable<br>
Bit rate : 5 b/s<br>
Frame rate : 0.108 FPS<br>
Stream size : 1.56 KiB (0%)<br>
Title : Portuguese (Brazil) / Portuguese (Brazil)<br>
Language : Portuguese<br>
Default : Yes<br>
Forced : No<br>
Alternate group : 2<br>
Encoded date : 2024-05-11 00:42:35 UTC<br>
Tagged date : 2024-05-11 00:42:35 UTC<br>
Count of events : 34<br>
<br>
<br>
Movie name : VH1 Storytellers - Alanis Morissette<br>
Format : MPEG-4<br>
Format profile : Base Media / Version 2<br>
Codec ID : mp42 (mp42/iso6)<br>
File size : 273 MiB<br>
Duration : 43 min 34 s<br>
Overall bit rate mode : Variable<br>
Overall bit rate : 877 kb/s<br>
Frame rate : 29.970 FPS<br>
Encoded date : 2024-05-11 01:08:38 UTC<br>
Tagged date : 2024-05-11 01:08:38 UTC<br>
<br>
Video<br>
ID : 1<br>
Format : AVC<br>
Format/Info : Advanced Video Codec<br>
Format profile : High@L4<br>
Format settings : CABAC / 5 Ref Frames<br>
Format settings, CABAC : Yes<br>
Format settings, Reference fra : 5 frames<br>
Codec ID : avc1<br>
Codec ID/Info : Advanced Video Coding<br>
Duration : 43 min 34 s<br>
Bit rate : 750 kb/s<br>
Width : 768 pixels<br>
Height : 576 pixels<br>
Display aspect ratio : 4:3<br>
Frame rate mode : Constant<br>
Frame rate : 29.970 (30000/1001) FPS<br>
Color space : YUV<br>
Chroma subsampling : 4:2:0<br>
Bit depth : 8 bits<br>
Scan type : Progressive<br>
Bits/(Pixel*Frame) : 0.057<br>
Stream size : 233 MiB (85%)<br>
Writing library : x264 core 164 r3085 0bb85e8<br>
Encoding settings : cabac=1 / ref=5 / deblock=1:0:0 / analyse=0x3:0x113 / me=hex / subme=8 / psy=1 / psy_rd=1.00:0.00 / mixed_ref=1 / me_range=16 / chroma_me=1 / trellis=2 / 8x8dct=1 / cqm=0 / deadzone=21,11 / fast_pskip=1 / chroma_qp_offset=-2 / threads=12 / lookahead_threads=2 / sliced_threads=0 / nr=0 / decimate=1 / interlaced=0 / bluray_compat=0 / stitchable=1 / constrained_intra=0 / bframes=3 / b_pyramid=2 / b_adapt=1 / b_bias=0 / direct=3 / weightb=1 / open_gop=0 / weightp=2 / keyint=60 / keyint_min=6 / scenecut=0 / intra_refresh=0 / rc_lookahead=50 / rc=2pass / mbtree=1 / bitrate=750 / ratetol=1.0 / qcomp=0.60 / qpmin=0 / qpmax=69 / qpstep=4 / cplxblur=20.0 / qblur=0.5 / vbv_maxrate=900 / vbv_bufsize=750 / nal_hrd=none / filler=0 / ip_ratio=1.40 / aq=1:1.00<br>
Encoded date : 2024-05-11 01:08:38 UTC<br>
Tagged date : 2024-05-11 01:08:38 UTC<br>
Color range : Limited<br>
Matrix coefficients : BT.601<br>
Codec configuration box : avcC<br>
<br>
Audio<br>
ID : 2<br>
Format : AAC LC<br>
Format/Info : Advanced Audio Codec Low Complexity<br>
Codec ID : mp4a-40-2<br>
Duration : 43 min 34 s<br>
Duration_LastFrame : -1 ms<br>
Bit rate mode : Constant<br>
Bit rate : 125 kb/s<br>
Channel(s) : 2 channels<br>
Channel layout : L R<br>
Sampling rate : 48.0 kHz<br>
Frame rate : 46.875 FPS (1024 SPF)<br>
Compression mode : Lossy<br>
Stream size : 39.1 MiB (14%)<br>
Language : English<br>
Default : Yes<br>
Alternate group : 1<br>
Encoded date : 2024-05-11 01:08:38 UTC<br>
Tagged date : 2024-05-11 01:08:38 UTC<br>
<br>
Text #1<br>
ID : 3<br>
Format : Timed Text<br>
Muxing mode : sbtl<br>
Codec ID : tx3g<br>
Duration : 43 min 30 s<br>
Bit rate mode : Variable<br>
Bit rate : 42 b/s<br>
Frame rate : 0.291 FPS<br>
Stream size : 13.3 KiB (0%)<br>
Title : Spanish (Mexico) / Spanish (Mexico)<br>
Language : Spanish<br>
Default : Yes<br>
Forced : No<br>
Alternate group : 2<br>
Encoded date : 2024-05-11 01:08:38 UTC<br>
Tagged date : 2024-05-11 01:08:38 UTC<br>
Count of events : 348<br>
<br>
Text #2<br>
ID : 4<br>
Format : Timed Text<br>
Muxing mode : sbtl<br>
Codec ID : tx3g<br>
Duration : 43 min 30 s<br>
Bit rate mode : Variable<br>
Bit rate : 37 b/s<br>
Frame rate : 0.259 FPS<br>
Stream size : 11.7 KiB (0%)<br>
Title : Portuguese (Brazil) / Portuguese (Brazil)<br>
Language : Portuguese<br>
Default : Yes<br>
Forced : No<br>
Alternate group : 2<br>
Encoded date : 2024-05-11 01:08:38 UTC<br>
Tagged date : 2024-05-11 01:08:38 UTC<br>
Count of events : 302</div>
</div><br>
<div class="bbCodeBlock bbCodeVfcHH HiddenContent">
<div class="attribution type">Hidden Content:</div>
<blockquote>You must either reply or click 'Like' to see the hidden information contained here.</blockquote>
</div>password:
<div class="bbCodeBlock bbCodeVfcHH HiddenContent">
<div class="attribution type">Hidden Content:</div>
<blockquote>You must reply before you can see the hidden data contained here.</blockquote>
</div>
<div class="messageTextEndMarker">&nbsp;</div>
</blockquote>
</article>]]></description>
                <author><![CDATA[JrAleixo]]></author>
                </item>

                
                <item>
                <title><![CDATA[【Albums (lossless)】ALAC - Iggy Azalea - The End of an Era (Deluxe) | Apple Music | Apple LAC | .M4A 24bits ／ 44.1kHz]]></title>
                <link><![CDATA[https://sharemania.us/threads/iggy-azalea-the-end-of-an-era-deluxe-apple-music-apple-lac-m4a-24bits-%EF%BC%8F-44-1khz.244202/]]></link>
                <description><![CDATA[<article>
<blockquote class="messageText SelectQuoteContainer ugc baseHtml">
<div style="text-align: center"><img src="https://i.imgur.com/KfzIPL9.jpeg" class="bbCodeImage LbImage" alt="[​IMG]" data-url="https://i.imgur.com/KfzIPL9.jpeg" style=""><br>
<br>
<b><span style="font-family: 'Book Antiqua'"><span style="font-size: 12px"><span style="color: #ff00ff">24bit version</span></span></span></b><br>
<br>
<span style="font-family: 'Book Antiqua'"><span style="font-size: 12px"><span style="color: #0000ff">
<div class="bbCodeBlock bbCodeVfcHH HiddenContent">
<div class="attribution type">Hidden Content:</div>
<blockquote>You must reply before you can see the hidden data contained here.</blockquote>
</div></span></span></span>​</div>
<div class="messageTextEndMarker">&nbsp;</div>
</blockquote>
</article>]]></description>
                <author><![CDATA[Nuric]]></author>
                </item>

                
                <item>
                <title><![CDATA[【Albums (lossless)】ALAC - Iggy Azalea - Wicked Lips - EP | Apple Music | Apple LAC | .M4A 24bits / 44.1-48.0kHz]]></title>
                <link><![CDATA[https://sharemania.us/threads/iggy-azalea-wicked-lips-ep-apple-music-apple-lac-m4a-24bits-44-1-48-0khz.244200/]]></link>
                <description><![CDATA[<article>
<blockquote class="messageText SelectQuoteContainer ugc baseHtml">
<div style="text-align: center"><img src="https://i.imgur.com/i8kytXb.jpeg" class="bbCodeImage LbImage" alt="[​IMG]" data-url="https://i.imgur.com/i8kytXb.jpeg" style=""><br>
<br>
<span style="font-family: 'Book Antiqua'"><span style="font-size: 12px"><span style="color: #99ccff">
<div class="bbCodeBlock bbCodeVfcHH HiddenContent">
<div class="attribution type">Hidden Content:</div>
<blockquote>You must reply before you can see the hidden data contained here.</blockquote>
</div></span></span></span>​</div>
<div class="messageTextEndMarker">&nbsp;</div>
</blockquote>
</article>]]></description>
                <author><![CDATA[Nuric]]></author>
                </item>

                
                <item>
                <title><![CDATA[【Albums (lossless)】ALAC - Iggy Azalea - Work (Remixes) - EP | Apple Music | Apple LAC | .M4A 16bits ／ 44.1kHz]]></title>
                <link><![CDATA[https://sharemania.us/threads/iggy-azalea-work-remixes-ep-apple-music-apple-lac-m4a-16bits-%EF%BC%8F-44-1khz.244203/]]></link>
                <description><![CDATA[<article>
<blockquote class="messageText SelectQuoteContainer ugc baseHtml">
<div style="text-align: center"><img src="https://a5.mzstatic.com/us/r1000/0/Music122/v4/52/7b/bb/527bbbbb-37f8-5b06-ea17-3cd3c9986f72/13UMGIM26800.rgb.jpg" class="bbCodeImage LbImage" alt="[​IMG]" data-url="https://a5.mzstatic.com/us/r1000/0/Music122/v4/52/7b/bb/527bbbbb-37f8-5b06-ea17-3cd3c9986f72/13UMGIM26800.rgb.jpg" style=""> <br>
<br>
<span style="font-family: 'Book Antiqua'"><span style="font-size: 12px"><span style="color: #000000">
<div class="bbCodeBlock bbCodeVfcHH HiddenContent">
<div class="attribution type">Hidden Content:</div>
<blockquote>You must reply before you can see the hidden data contained here.</blockquote>
</div></span></span></span>​</div>
<div class="messageTextEndMarker">&nbsp;</div>
</blockquote>
</article>]]></description>
                <author><![CDATA[Nuric]]></author>
                </item>

                </channel></rss>